<svg xmlns="http://www.w3.org/2000/svg" version="1.0" width="1278.000000pt" height="1280.000000pt" viewBox="0 0 1278.000000 1280.000000" preserveAspectRatio="xMidYMid meet">
    <g transform="translate(0.000000,1280.000000) scale(0.100000,-0.100000)" fill="#8B5CF6" stroke="none">
        <path d="M6110 12083 c-1146 -28 -2174 -345 -3085 -951 -535 -355 -1059 -846 -1471 -1377 -684 -880 -1067 -1867 -1174 -3025 -18 -185 -24 -773 -11 -970 55 -827 238 -1538 571 -2215 572 -1164 1634 -2208 2795 -2748 656 -305 1320 -472 2094 -527 197 -14 700 -14 906 0 1343 91 2488 567 3485 1447 148 131 453 437 576 578 824 947 1271 1983 1399 3245 22 213 31 795 16 1030 -66 1034 -348 1921 -873 2748 -440 694 -1115 1375 -1818 1834 -783 512 -1644 812 -2595 903 -162 15 -582 36 -665 33 -25 -1 -92 -3 -150 -5z m-1870 -643 c0 -5 -21 -21 -47 -36 -737 -418 -1285 -821 -1781 -1309 -449 -440 -774 -861 -1065 -1375 -131 -233 -267 -524 -358 -769 -28 -75 -56 -140 -61 -146 -18 -18 -1 91 42 258 174 688 486 1289 946 1827 133 156 473 495 614 612 234 194 460 352 720 503 245 142 647 328 910 421 76 26 80 27 80 14z m140 -398 c0 -4 -62 -43 -137 -86 -620 -355 -1151 -754 -1598 -1201 -219 -218 -347 -364 -518 -590 -323 -428 -559 -863 -728 -1340 -29 -83 -56 -154 -61 -160 -26 -30 10 192 67 410 180 688 546 1291 1136 1870 514 504 1050 843 1679 1061 124 43 160 51 160 36z m130 -386 c-8 -8 -79 -51 -158 -96 -1360 -770 -2232 -1763 -2573 -2928 -21 -75 -41 -138 -44 -140 -43 -43 52 431 135 678 230 681 672 1289 1304 1795 354 282 753 504 1191 661 129 46 170 55 145 30z m160 -375 c0 -5 -60 -47 -132 -92 -315 -194 -660 -441 -933 -668 -190 -157 -589 -557 -721 -721 -359 -446 -577 -854 -710 -1329 -56 -197 -70 -184 -34 30 61 366 160 666 322 979 148 287 334 542 578 794 425 437 902 747 1505 977 105 40 125 45 125 30z m160 -385 c-8 -8 -76 -48 -150 -89 -463 -253 -812 -509 -1146 -842 -258 -256 -416 -455 -575 -722 -174 -292 -299 -601 -379 -938 -43 -181 -40 -172 -52 -151 -10 17 4 223 23 346 69 447 262 872 575 1265 109 136 397 425 524 526 328 259 646 435 1030 570 147 52 174 58 150 35z m130 -395 c0 -5 -44 -35 -97 -67 -243 -144 -579 -383 -798 -565 -135 -113 -378 -351 -488 -478 -340 -395 -539 -784 -628 -1229 -12 -61 -25 -109 -30 -106 -21 13 29 368 80 568 221 864 796 1467 1732 1814 209 77 229 83 229 63z m180 -375 c0 -3 -39 -28 -87 -57 -136 -81 -417 -269 -523 -348 -257 -194 -543 -461 -699 -654 -105 -130 -227 -320 -295 -459 -104 -213 -147 -353 -197 -648 l-13 -75 -8 45 c-12 63 8 291 37 438 63 310 202 604 418 880 98 127 299 332 417 426 239 191 516 338 805 427 81 25 145 36 145 25z m126 -375 c-4 -5 -50 -33 -104 -61 -118 -63 -346 -214 -462 -306 -109 -87 -396 -374 -483 -484 -269 -338 -431 -682 -467 -993 -6 -51 -14 -103 -17 -117 -19 -89 -38 189 -23 355 26 304 105 542 254 764 233 347 589 598 1141 802 127 47 172 58 161 40z m163 -395 c-2 -2 -58 -34 -124 -71 -482 -268 -801 -576 -993 -961 -89 -177 -156 -409 -177 -609 -3 -33 -9 -73 -12 -90 l-6 -30 -9 25 c-18 49 -21 386 -5 495 75 482 372 845 894 1092 131 62 372 152 407 153 16 0 27 -2 25 -4z m1171 -156 c395 -69 733 -245 1023 -534 172 -171 287 -330 387 -539 224 -463 247 -1033 64 -1524 -97 -259 -233 -464 -458 -688 -144 -144 -239 -219 -392 -311 -194 -117 -398 -192 -640 -235 -156 -29 -483 -31 -644 -5 -346 56 -642 187 -910 403 -100 81 -270 258 -348 363 -252 337 -372 713 -372 1164 0 525 177 964 540 1340 211 218 438 371 701 471 115 44 302 90 419 104 52 6 109 13 125 15 78 11 386 -4 505 -24z m-5272 -587 c-5 -26 -38 -29 -38 -4 0 15 6 21 21 21 14 0 19 -5 17 -17z m7064 -2168 c3 -207 0 -265 -14 -336 -102 -499 -467 -833 -1135 -1038 -147 -45 -203 -57 -203 -44 0 4 53 35 117 67 709 352 1112 874 1193 1541 25 207 38 145 42 -190z m392 214 c19 -96 0 -346 -40 -528 -75 -335 -225 -612 -472 -872 -283 -298 -651 -514 -1079 -634 -51 -14 -18 17 70 66 208 117 428 264 607 406 114 90 392 369 467 468 245 326 377 646 415 1008 6 65 15 117 19 117 3 0 9 -14 13 -31z m775 -477 c-31 -343 -135 -687 -289 -954 -320 -551 -875 -1017 -1520 -1273 -116 -46 -263 -95 -269 -89 -8 8 11 21 149 99 275 157 517 321 764 517 161 126 485 446 597 588 296 376 465 740 545 1180 14 78 19 90 25 67 4 -15 3 -76 -2 -135z m-424 -8 c-131 -835 -600 -1444 -1370 -1779 -118 -52 -408 -155 -434 -155 -29 0 -2 24 97 86 385 240 711 491 971 747 401 396 595 711 728 1182 24 84 28 44 8 -81z m819 -96 c-3 -24 -20 -104 -36 -178 -102 -457 -303 -908 -566 -1270 -366 -502 -845 -857 -1423 -1055 -195 -67 -357 -107 -328 -81 2 2 78 39 169 84 514 250 969 613 1405 1122 334 390 565 786 707 1215 32 99 61 186 63 193 9 27 15 9 9 -30z m421 -38 c-5 -8 -11 -8 -17 -2 -6 6 -7 16 -3 22 5 8 11 8 17 2 6 -6 7 -16 3 -22z m-20 -88 c-4 -26 -15 -101 -26 -167 -172 -1040 -882 -1876 -2121 -2496 -225 -113 -378 -181 -397 -177 -9 2 72 56 179 120 638 382 1135 783 1467 1181 340 408 619 901 848 1499 39 102 60 119 50 40z m411 -79 c-10 -10 -19 5 -10 18 6 11 8 11 12 0 2 -7 1 -15 -2 -18z m-19 -120 c-16 -218 -115 -575 -229 -828 -276 -611 -815 -1229 -1473 -1687 -220 -153 -541 -323 -815 -431 -144 -57 -320 -117 -344 -117 -21 0 15 25 112 77 848 453 1515 1003 2003 1648 275 364 507 789 664 1217 25 68 52 142 61 166 9 23 18 42 21 42 3 0 3 -39 0 -87z m388 -231 c-29 -132 -112 -394 -175 -554 -221 -564 -541 -1042 -1001 -1494 -441 -433 -931 -761 -1501 -1005 -152 -65 -353 -141 -403 -153 -27 -7 -28 -6 -15 8 8 8 79 50 156 94 486 276 951 600 1354 946 150 129 548 529 671 676 415 494 657 907 910 1555 19 51 22 9 4 -73z m427 6 c-15 -15 -26 -4 -18 18 5 13 9 15 18 6 9 -9 9 -15 0 -24z m-62 -215 c-193 -727 -560 -1434 -1009 -1943 -555 -629 -1298 -1109 -2190 -1414 -73 -25 -140 -46 -148 -46 -29 0 1 22 90 67 670 335 1292 787 1847 1343 542 543 913 1046 1208 1636 75 150 108 224 193 429 18 44 35 72 37 63 2 -10 -11 -70 -28 -135z"/>
        <path d="M6157 6538 c-52 -14 -112 -73 -126 -123 -6 -22 -11 -69 -11 -105 1 -143 74 -212 225 -213 87 -1 132 14 173 56 39 40 52 82 52 162 0 85 -17 134 -59 176 -55 55 -154 73 -254 47z"/>
    </g>
</svg>
